<svg id="Layer_1" data-name="Layer 1" xmlns="http://www.w3.org/2000/svg" viewBox="0 0 24 23.85"><defs><style>.cls-1{fill:#ced4da;}</style></defs><path class="cls-1" d="M12,11.93a6,6,0,0,0,4.24-1.75,5.93,5.93,0,0,0,0-8.43,6,6,0,0,0-8.48,0,5.93,5.93,0,0,0,0,8.43A6,6,0,0,0,12,11.93Zm4-6a3.94,3.94,0,0,1-1.17,2.81,4,4,0,0,1-5.66,0,4,4,0,0,1,0-5.62,4,4,0,0,1,5.66,0A4,4,0,0,1,16,6Zm8,15.9a2,2,0,0,1-2,2H2a2,2,0,0,1-2-2c0-2,2-7.95,12-7.95S24,19.88,24,21.86Zm-2,0a5.31,5.31,0,0,0-1.66-3.31C19,17.25,16.58,15.9,12,15.9s-7,1.35-8.34,2.65A5.31,5.31,0,0,0,2,21.86Z"/></svg>