<svg id="Layer_1" data-name="Layer 1" xmlns="http://www.w3.org/2000/svg" viewBox="0 0 26.33 28.42"><defs><style>.cls-1{fill:#ced4da;}</style></defs><path class="cls-1" d="M17.16,9.91a1,1,0,0,1-.87-.5L12.54,2.92a1.47,1.47,0,0,0-.89-.61A1.5,1.5,0,0,0,10,4.46a1,1,0,0,1-1.78.93,3.46,3.46,0,0,1-.25-2.6A3.51,3.51,0,0,1,9.54.73,3.55,3.55,0,0,1,12.13.36a3.51,3.51,0,0,1,2.12,1.53L18,8.41a1,1,0,0,1-.86,1.5Z"/><path class="cls-1" d="M12.33,11.55a1,1,0,0,1-.86-.5L7.22,3.68a1.51,1.51,0,0,0-2-.45,1.45,1.45,0,0,0-.69.88,1.48,1.48,0,0,0,.11,1.11l2,3.43a1,1,0,0,1-1.73,1l-2-3.47a3.51,3.51,0,0,1-.28-2.63A3.5,3.5,0,0,1,6.8,1.13,3.47,3.47,0,0,1,8.93,2.65l4.27,7.4a1,1,0,0,1-.37,1.36A1,1,0,0,1,12.33,11.55Z"/><path class="cls-1" d="M15.35,26.75a11,11,0,0,1-9.55-5.5L.55,12.15a3.52,3.52,0,0,1-.44-1.3A3.46,3.46,0,0,1,.2,9.49,3.52,3.52,0,0,1,1.84,7.36,3.58,3.58,0,0,1,4.5,7,3.52,3.52,0,0,1,6.62,8.65l2.75,4.76a1,1,0,1,1-1.73,1L4.89,9.65A1.48,1.48,0,0,0,4,9,1.5,1.5,0,0,0,2.14,10a1.27,1.27,0,0,0,0,.58,1.54,1.54,0,0,0,.18.56l5.25,9.1a9,9,0,1,0,15.6-9l-2.5-4.34a1.48,1.48,0,0,0-.92-.7A1.5,1.5,0,0,0,18,8.41l1.25,2.18A1,1,0,0,1,18.9,12a4.12,4.12,0,0,0-1.17,1,4,4,0,0,0-.79,2.95,3.89,3.89,0,0,0,.51,1.48,1,1,0,0,1-1.73,1A5.82,5.82,0,0,1,15,16.2a6.15,6.15,0,0,1,.15-2.34,5.91,5.91,0,0,1,1-2.1,6.1,6.1,0,0,1,.93-1l-.79-1.38a3.5,3.5,0,0,1,6.07-3.5l2.5,4.34a11,11,0,0,1-9.51,16.5Z"/><path class="cls-1" d="M7.47,28.25a1,1,0,0,1-.57-.18,15,15,0,0,1-4.44-4.83,1,1,0,0,1,1.74-1A12.77,12.77,0,0,0,8,26.42a1,1,0,0,1,.25,1.4A1,1,0,0,1,7.47,28.25Z"/><path class="cls-1" d="M25,5.37a1,1,0,0,1-.87-.5,5.49,5.49,0,0,0-2-2,5.55,5.55,0,0,0-2.73-.73h0a1,1,0,0,1,0-2h0a7.5,7.5,0,0,1,3.73,1,7.41,7.41,0,0,1,2.74,2.76,1,1,0,0,1-.37,1.36A1,1,0,0,1,25,5.37Z"/></svg>